<?xml version="1.0" encoding="iso-8859-1"?>
<!-- Uploaded to: SVG Repo, www.svgrepo.com, Generator: SVG Repo Mixer Tools -->
<svg fill="#000000" height="800px" width="800px" version="1.1" id="Layer_1" xmlns="http://www.w3.org/2000/svg" xmlns:xlink="http://www.w3.org/1999/xlink" 
	 viewBox="0 0 491.521 491.521" xml:space="preserve">
<g>
	<g>
		<path d="M442.646,48.877c-65.167-65.168-170.821-65.168-235.986-0.002c-60.305,60.306-64.686,155.227-13.375,220.704l-21.8,21.801
			c-10.598-8.148-20.225-12.812-24.028-9.009l-18.393,18.392l61.696,61.694l18.392-18.391c3.802-3.804-0.861-13.431-9.009-24.028
			l21.801-21.801c65.477,51.312,160.398,46.932,220.705-13.374C507.812,219.697,507.812,114.042,442.646,48.877z M235.119,77.338
			c49.368-49.368,129.701-49.371,179.068-0.003c22.461,22.46,34.585,51.336,36.608,80.782h-89.477l-9.871-30.836
			c-1.084-3.375-4.304-5.884-7.827-5.504c-3.546,0.124-6.581,2.586-7.424,6.039l-21.856,89.272l-30.558-104.516
			c-0.89-3.043-3.499-5.257-6.635-5.644c-3.143-0.41-6.217,1.115-7.811,3.855l-27.786,47.326h-43.038
			C200.536,128.667,212.661,99.797,235.119,77.338z M414.184,256.403c-49.369,49.369-129.693,49.364-179.061-0.004
			c-22.881-22.881-35.018-52.417-36.69-82.434h47.654c2.81,0,5.411-1.487,6.836-3.918l20.795-35.412l33.693,115.247
			c0.991,3.391,4.095,5.706,7.61,5.706c0.054,0,0.116,0,0.178,0c3.584-0.085,6.665-2.563,7.525-6.046l22.188-90.651l3.066,9.569
			c1.045,3.282,4.103,5.513,7.549,5.513h95.345C449.198,203.988,437.063,233.524,414.184,256.403z"/>
	</g>
</g>
<g>
	<g>
		<path d="M148.064,351.473l-34.855-34.854L1.541,428.286c-6.528,6.529,8.737,27.693,25.944,43.764
			c14.452,13.498,30.268,23.413,35.751,17.932l111.667-111.669L148.064,351.473z"/>
	</g>
</g>
</svg>