<?xml version="1.0" encoding="UTF-8"?>
<svg version="1.1" viewBox="0 0 1600 1600" width="1280" height="1280" xmlns="http://www.w3.org/2000/svg">
<path transform="translate(722 23.4)" d="m0 0c19.9 15.7 33.3 33.6 43.1 56.9 2.95 6.85 6.5 13.8 13.6 17.1 0.619 0.296 1.24 0.593 1.88 0.898 4.44 1.52 8.92 1.85 13.6 1.85 1.07 0.00137 2.13 0.00275 3.23 0.00416 1.16-0.00359 2.32-0.00719 3.51-0.0109 1.24 1.49e-4 2.48 2.98e-4 3.76 4.51e-4 3.44-5.74e-4 6.87-0.00563 10.3-0.0126 3.71-0.00638 7.42-0.00694 11.1-0.00818 6.43-0.00289 12.9-0.00933 19.3-0.0181 9.32-0.0126 18.6-0.0186 28-0.0229 15.1-0.00707 30.3-0.0179 45.4-0.0317 0.906-8.28e-4 1.81-0.00166 2.75-0.00251 7.35-0.00674 14.7-0.0137 22-0.0206 6.4-0.00605 12.8-0.012 19.2-0.0179 0.901-8.28e-4 1.8-0.00166 2.73-0.00251 15.1-0.0137 30.1-0.0235 45.2-0.0304 9.28-0.00446 18.6-0.0125 27.8-0.0251 6.38-0.00849 12.8-0.0133 19.1-0.0154 3.67-0.00133 7.34-0.00426 11-0.0118 25.2-0.0497 25.2-0.0497 37.3 0.534 0.765 0.0368 1.53 0.0735 2.32 0.111 29.6 1.68 56 14 77.3 34.5 0.846 0.804 1.69 1.61 2.56 2.44 0.804 0.846 1.61 1.69 2.44 2.56 0.665 0.682 1.33 1.36 2.02 2.07 26.9 28.5 31.1 64.3 31.1 101 0.00187 2.29 0.00417 4.58 0.00687 6.87 0.0061 6.27 0.00599 12.5 0.00481 18.8-1.83e-4 6.07 0.00431 12.1 0.00861 18.2 0.00965 13.9 0.0125 27.9 0.0131 41.8 4.6e-4 10.8 0.00252 21.5 0.0057 32.3 8.98e-4 3.1 0.00179 6.21 0.00267 9.31 2.21e-4 0.772 4.42e-4 1.54 6.7e-4 2.34 0.00615 21.7 0.0101 43.4 0.00966 65.1-1.56e-5 0.817-3.12e-5 1.63-4.72e-5 2.48-8.31e-5 4.14-1.82e-4 8.28-2.85e-4 12.4-2.99e-5 1.23-2.99e-5 1.23-6.04e-5 2.49-4.04e-5 1.66-8.22e-5 3.33-1.25e-4 4.99-6.13e-4 25.9 0.0069 51.8 0.0206 77.7 0.0154 29.1 0.024 58.2 0.023 87.3-7.46e-5 3.1-1.23e-4 6.2-1.54e-4 9.31-1.17e-5 0.764-2.33e-5 1.53-3.53e-5 2.31-3.08e-5 12.3 0.00635 24.6 0.015 36.9 0.00847 12.3 0.00947 24.7 0.00289 37-0.00337 6.69-0.0033 13.4 0.00535 20.1 0.00784 6.12 0.00646 12.2-0.00228 18.4-0.00154 2.22 3.05e-4 4.43 0.00586 6.65 0.00705 3.01 0.00178 6.02-0.00656 9.03 0.00497 0.861 0.00994 1.72 0.0151 2.61-0.0537 9.16-1.26 16.9-7.83 23.7-4.85 4.51-9.23 6.08-15.9 6.68-6.82-0.598-11.7-3.01-16.9-7.32-5.13-6.22-6.24-12.2-6.25-20.1-0.0163-0.978-0.0326-1.96-0.0494-2.96-0.0486-3.23-0.069-6.45-0.0885-9.68-0.0276-2.29-0.0565-4.59-0.0868-6.88-0.0862-7.12-0.131-14.2-0.169-21.4-0.0133-2.16-0.0266-4.31-0.0399-6.47-0.0798-14-0.0791-28-0.0615-42 0.00654-6.15 0.00696-12.3 0.00818-18.4 0.00285-10.6 0.0092-21.2 0.0181-31.8 0.0128-15.3 0.0187-30.6 0.0229-46 2e-3 -7.18 0.00433-14.4 0.00674-21.5 2.41e-4 -0.718 4.82e-4 -1.44 7.3e-4 -2.18 0.00577-17 0.0147-34 0.0242-50.9 4.14e-4 -0.74 8.27e-4 -1.48 0.00125-2.24 0.00588-10.5 0.0119-21 0.018-31.5 0.00739-12.8 0.0147-25.7 0.0218-38.5 4.15e-4 -0.746 8.29e-4 -1.49 0.00126-2.26 0.00945-17 0.018-34.1 0.0237-51.1 2.41e-4 -0.716 4.82e-4 -1.43 7.3e-4 -2.17 0.00239-7.15 0.00461-14.3 0.00661-21.4 0.0043-15.3 0.0113-30.6 0.024-45.9 0.00919-11.1 0.0149-22.3 0.0171-33.4 0.00134-6.02 0.00434-12 0.0118-18.1 0.00677-5.51 0.00888-11 0.00736-16.5 2.71e-4 -1.99 0.00223-3.98 0.00609-5.97 0.0474-25.6-1.78-49.8-20.1-69.5-0.938-1.06-0.938-1.06-1.89-2.13-5.04-5.4-10.7-9.2-17.1-12.9-0.78-0.464-1.56-0.928-2.36-1.41-14.9-8.23-30.8-8.18-47.4-8.14-2.36-0.00875-4.71-0.0192-7.07-0.0313-6.35-0.0277-12.7-0.0313-19.1-0.0303-5.98-0.00282-12-0.024-17.9-0.045-11.8-0.0409-23.7-0.0644-35.5-0.0765-11.5-0.0119-23-0.0321-34.4-0.0635-0.71-0.00194-1.42-0.00387-2.15-0.00587-3.56-0.00977-7.12-0.0197-10.7-0.0297-29.5-0.0826-58.9-0.133-88.4-0.172v54c7.01-0.0262 14-0.0524 21.2-0.0793 22.4-0.0803 44.9-0.136 67.3-0.176 3.49-0.00625 6.97-0.0127 10.5-0.0193 0.694-0.00131 1.39-0.00262 2.1-0.00397 11.2-0.0217 22.5-0.0611 33.7-0.107 11.5-0.0468 23.1-0.0742 34.6-0.0847 6.47-0.00651 12.9-0.0218 19.4-0.0582 6.1-0.034 12.2-0.0444 18.3-0.0369 2.23-0.00137 4.47-0.0113 6.7-0.0305 3.06-0.025 6.11-0.0189 9.17-0.00525 0.877-0.0146 1.75-0.0291 2.66-0.0441 7.31 0.0875 13.8 2.35 19.3 7.39 8.2 9.85 6.4 23.7 6.35 35.7-3.95e-4 1.99 8.35e-5 3.98 0.00136 5.97 9.03e-4 5.46-0.0108 10.9-0.0246 16.4-0.0128 5.89-0.0139 11.8-0.0167 17.7-0.00738 11.5-0.026 23.1-0.049 34.6-0.0187 9.37-0.0341 18.7-0.0472 28.1-0.00382 2.7-0.00766 5.4-0.0115 8.1-9.54e-4 0.671-0.00191 1.34-0.00289 2.03-0.027 18.9-0.0583 37.7-0.0986 56.6-0.00151 0.711-0.00303 1.42-0.00459 2.15-0.00768 3.6-0.0154 7.21-0.0231 10.8-0.0023 1.07-0.0023 1.07-0.00464 2.17-0.0031 1.45-0.0062 2.89-0.00931 4.34-0.0482 22.5-0.0802 45.1-0.0998 67.6-0.0221 25.3-0.0576 50.6-0.112 76-0.00577 2.7-0.0115 5.4-0.0172 8.1-0.00211 0.997-0.00211 0.997-0.00426 2.01-0.0209 10-0.0312 20.1-0.0361 30.1-0.00566 11.4-0.0251 22.8-0.0624 34.2-0.0187 5.82-0.0308 11.6-0.0257 17.5 0.0045 5.33-0.00935 10.7-0.0379 16-0.00709 1.93-0.00744 3.86-3.93e-4 5.79 0.00858 2.62-0.00739 5.24-0.0294 7.86 0.0125 1.12 0.0125 1.12 0.0252 2.27-0.0975 6.3-2.21 11.3-6.11 16.2-5.52 4.7-11.1 7.04-18.5 6.99-7.46-0.846-12.1-3.24-17-8.98-5.03-6.64-5.15-13.9-5.12-21.9-0.00115-0.773-0.00231-1.55-0.0035-2.34-0.00264-2.59 0.00184-5.17 0.00629-7.76-4.36e-4 -1.87-0.00131-3.75-0.00259-5.62-0.00224-5.15 0.00176-10.3 0.00678-15.4 0.00432-5.55 0.00286-11.1 0.0021-16.7-5.24e-4 -9.62 0.00261-19.2 0.00824-28.9 0.00813-13.9 0.0107-27.8 0.012-41.7 0.00219-22.6 0.00884-45.1 0.0183-67.7 0.00919-21.9 0.0163-43.8 0.0205-65.8 2.71e-4 -1.38 5.41e-4 -2.76 8.12e-4 -4.14 0.00209-10.7 0.00404-21.4 0.00595-32 0.00943-52.3 0.0296-105 0.0482-157h-208c-1.48 4.45-1.48 4.45-3 9-9.49 18.5-25.3 31.3-44.7 37.9-10.3 2.87-21 3.37-31.6 3.34-1.26 0.00383-2.52 0.00765-3.82 0.0116-3.46 0.0102-6.92 0.00813-10.4 0.00382-3.75-0.00249-7.49 0.00657-11.2 0.014-7.32 0.0127-14.6 0.0145-22 0.0122-5.96-0.00179-11.9-2.09e-5 -17.9 0.00422-0.851 5.95e-4 -1.7 0.00119-2.58 0.0018-1.73 0.00121-3.46 0.00243-5.19 0.00364-16.2 0.0109-32.4 0.00872-48.5 0.00262-14.8-0.00517-29.5 0.00609-44.3 0.0251-15.2 0.0194-30.4 0.0276-45.6 0.0239-8.52-0.00191-17 5.19e-4 -25.6 0.0147-7.26 0.012-14.5 0.0133-21.8 0.00121-3.69-0.00585-7.39-0.00709-11.1 5e-3 -27.7 0.0845-51.5-1.5-72.6-21.7-6.96-7.24-12.1-15.5-16.2-24.7l-1.62-3.62c-4.24-11.9-3.71-25.2-3.79-37.7-0.0188-1.82-0.0383-3.64-0.0587-5.46-0.0509-4.74-0.0907-9.48-0.128-14.2-0.0403-4.85-0.0913-9.71-0.141-14.6-0.0962-9.49-0.181-19-0.258-28.5-30 0.0364-60.1 0.0931-90.1 0.178-3.55 0.01-7.11 0.0199-10.7 0.0296-1.06 0.00291-1.06 0.00291-2.14 0.00588-11.4 0.0309-22.9 0.048-34.3 0.0598-11.7 0.0124-23.5 0.04-35.2 0.0814-6.59 0.0226-13.2 0.0383-19.8 0.0373-6.21-7.49e-4 -12.4 0.0173-18.6 0.0493-2.27 0.00846-4.54 0.0103-6.81 0.00463-24.8-0.0533-45.1 4.68-63.3 22.6-12.8 13.1-21.2 31.2-21.1 49.6-0.00266 1.13-0.00266 1.13-0.00538 2.28-0.00474 2.53-0.00237 5.06-4.11e-5 7.59-0.00195 1.84-0.00434 3.67-0.00713 5.51-0.00641 5.07-0.00656 10.1-0.00572 15.2-1.69e-4 5.51-0.00607 11-0.0112 16.5-0.00933 10.9-0.0132 21.9-0.0155 32.8-0.00281 12.4-0.0108 24.9-0.0191 37.3-0.0216 32.3-0.0325 64.7-0.0415 97-0.00293 10.5-0.0063 21-0.00997 31.5-3.87e-4 1.11-3.87e-4 1.11-7.83e-4 2.24-0.00105 2.99-0.00209 5.99-0.00315 8.98-0.018 51.2-0.0333 102-0.0408 154-5.84e-4 4.02-0.00118 8.04-0.00178 12.1-1.77e-4 1.2-1.77e-4 1.2-3.58e-4 2.42-0.0012 8.08-0.00241 16.2-0.00363 24.2-2.45e-4 1.62-4.89e-4 3.24-7.32e-4 4.86-0.00779 52-0.0302 104-0.0627 156-0.0233 37.4-0.0449 74.8-0.052 112-1.47e-4 0.769-2.94e-4 1.54-4.46e-4 2.33-0.00318 16.9-0.00524 33.8-0.00623 50.7-4.15e-4 6.79-9.7e-4 13.6-0.00156 20.4-6.07e-5 0.744-1.21e-4 1.49-1.84e-4 2.25-0.00202 23.9-0.0163 47.9-0.0368 71.8-0.0206 24.1-0.0285 48.2-0.0189 72.4 0.00592 15 0.00113 29.9-0.0217 44.9-0.0135 9.55-0.0125 19.1 4.02e-4 28.6 0.00691 5.44 0.00751 10.9-0.00956 16.3-0.0154 4.95-0.0123 9.91 0.00541 14.9 0.00314 1.78-3.58e-4 3.55-0.0115 5.33-0.128 21.9 5.8 40.3 20.9 56.7l2.56 2.38c0.572 0.543 1.14 1.09 1.73 1.64 17.1 15.7 38 19.8 60.5 19.7 1.57 0.00303 3.15 0.00737 4.72 0.0129 4.29 0.0113 8.59 0.00418 12.9-0.00613 4.68-0.00789 9.36 0.00175 14 0.00913 8.2 0.0105 16.4 0.0101 24.6 0.00235 12.2-0.0115 24.4-0.00562 36.6 0.00383 20.5 0.0155 41 0.0175 61.5 0.0122 28-0.00699 56 0.00565 84 0.0235 13 0.0083 26.1 0.0156 39.1 0.0227 1.31 7.1e-4 2.61 0.00142 3.96 0.00215 30.4 0.0163 60.8 0.0237 91.2 0.0293 2.06 3.8e-4 4.12 7.64e-4 6.18 0.00115 21.4 0.00399 42.7 0.00743 64.1 0.0108 20.7 0.00325 41.4 0.00665 62.1 0.0105 2.06 3.84e-4 4.12 7.64e-4 6.18 0.00114 31 0.00574 62.1 0.0142 93.1 0.0311 1.96 0.00106 1.96 0.00106 3.95 0.00215 13 0.00713 26 0.0147 39 0.023 28 0.0177 55.9 0.0272 83.9 0.0201 20.4-0.00509 40.8 2.6e-5 61.1 0.0159 12.1 0.00905 24.2 0.00958 36.3-0.00185 8.09-0.00682 16.2-0.00287 24.3 0.00994 4.61 0.00698 9.22 0.00914 13.8-0.00186 4.19-0.00993 8.39-0.00611 12.6 0.00873 1.51 0.00292 3.02 7.91e-4 4.53-0.00695 16.2-0.0775 16.2-0.0775 23.2 5 5.76 6.1 9.03 11.8 8.79 20.4-1.38 6.89-4.26 12.8-9.81 17.2-5.5 3.02-10.7 4-16.9 4-0.962 0.00421-0.962 0.00421-1.94 0.0085-2.15 0.00695-4.29-3.07e-4 -6.43-0.00751-1.56 0.00209-3.12 0.00505-4.69 0.00881-4.3 0.0078-8.61 0.00312-12.9-0.00356-4.68-0.00506-9.36 0.00144-14 0.00649-8.2 0.00723-16.4 7e-3 -24.6 0.00191-12.2-0.00755-24.4-0.0037-36.6 0.00242-21.8 0.0105-43.6 0.00961-65.4 0.00384-19.1-0.00503-38.1-0.00635-57.2-0.00395-1.9 2.29e-4 -1.9 2.29e-4 -3.83 4.63e-4 -5.13 6.23e-4 -10.3 0.00126-15.4 0.00192-35.8 0.00455-71.7 0.00535-107-0.00213-0.676-1.4e-4 -1.35-2.81e-4 -2.05-4.26e-4 -11-0.00229-21.9-0.00473-32.9-0.00718-43.5-0.00971-87-0.00927-130 4.61e-4 -11 0.00244-21.9 0.00486-32.9 0.00714-0.674 1.41e-4 -1.35 2.82e-4 -2.04 4.27e-4 -36.4 0.00756-72.9 0.00589-109 0.0012-5.13-6.41e-4 -10.3-0.00127-15.4-0.00189-1.26-1.58e-4 -2.52-3.16e-4 -3.82-4.79e-4 -19.1-0.00227-38.1 3.85e-4 -57.2 0.00544-21.7 0.00572-43.4 0.00429-65-0.00656-12.1-0.00587-24.3-0.00626-36.4 0.00129-8.11 0.00449-16.2 0.00169-24.3-0.00701-4.62-0.00475-9.23-0.0064-13.8 8.12e-4 -4.21 0.0065-8.41 0.00365-12.6-0.00636-1.51-2e-3 -3.01-7.24e-4 -4.52 0.00441-13 0.0411-26.2-0.682-38.7-4.26-0.727-0.206-1.45-0.412-2.2-0.624-14.1-4.26-27.8-11-39.1-20.4l-2.71-2.07c-24.9-19.4-40.6-48.5-45-79.6-1.33-11.1-1.42-22.2-1.41-33.4-0.00135-1.81-0.00313-3.62-0.00531-5.43-0.00471-4.97-0.00323-9.93-7.22e-4 -14.9 0.00164-5.41-0.00251-10.8-0.00591-16.2-0.00515-9.47-0.00657-18.9-0.00554-28.4 0.00153-14.1-0.00264-28.2-0.00787-42.3-0.00967-26.6-0.0125-53.2-0.0131-79.9-6.47e-5 -2.94-1.33e-4 -5.87-2.03e-4 -8.81-1.7e-5 -0.728-3.4e-5 -1.46-5.15e-5 -2.21-4.09e-4 -16.2-0.0026-32.3-0.0051-48.5-0.00103-6.65-0.00202-13.3-0.00302-20-1.11e-4 -0.735-2.21e-4 -1.47-3.35e-4 -2.23-0.00632-42.1-0.0104-84.2-0.00999-126 1.58e-5 -1.58 3.15e-5 -3.15 4.72e-5 -4.73 7.34e-5 -7.11 1.62e-4 -14.2 2.54e-4 -21.3 4.11e-5 -3.17 8.13e-5 -6.34 1.21e-4 -9.52 2.04e-5 -1.59 4.14e-5 -3.18 6.31e-5 -4.76 6.8e-4 -50.2-0.00664-100-0.0205-151-0.0035-12.6-0.00697-25.3-0.0103-37.9-2.03e-4 -0.779-4.06e-4 -1.56-6.15e-4 -2.36-0.00622-24-0.00998-48-0.0112-72-4e-5 -0.754-7.99e-5 -1.51-1.21e-4 -2.29-8.53e-4 -16.6-0.00111-33.1-8.3e-4 -49.7 9.65e-5 -5.92 1.49e-4 -11.8 1.79e-4 -17.8 7.91e-6 -1.47 1.81e-5 -2.95 3.06e-5 -4.42 1.76e-4 -23.5-0.00552-46.9-0.0142-70.4-0.0089-24.3-0.0105-48.6-0.00369-72.9 0.0037-14 0.00186-28-0.00794-42-6e-3 -9.36-0.00471-18.7 0.00247-28.1 0.00388-5.33 0.00465-10.7-0.00346-16-0.00733-4.86-0.00528-9.71 0.00392-14.6 0.00171-1.74 1.4e-4 -3.47-0.0053-5.21-0.113-38.6 9.17-71.6 36.3-100 0.647-0.7 1.29-1.4 1.96-2.12 23.5-24.6 56-33.8 89-34.9 9.07-0.166 18.1-0.117 27.2-0.0977 2.71 0.00192 5.41 0.00344 8.12 0.00443 5.8 0.00287 11.6 0.00927 17.4 0.0181 8.42 0.0127 16.8 0.0187 25.3 0.0229 13.7 0.00705 27.4 0.0178 41.1 0.0317 1.23 0.00124 1.23 0.00124 2.48 0.00251 6.63 0.00673 13.3 0.0137 19.9 0.0206 5.77 0.00605 11.5 0.012 17.3 0.0179 1.22 0.00124 1.22 0.00124 2.46 0.00251 13.6 0.0138 27.3 0.0235 40.9 0.0304 7.63 0.00404 15.3 0.0102 22.9 0.0217 18.3 0.0271 36.6 0.032 54.9-0.0752 0.999-0.00583 2-0.0117 3.03-0.0177 5.11-0.0343 10.2-0.0911 15.3-0.195 2.04-0.0391 4.08-0.0615 6.12-0.0831 7.8-0.212 13.3-1.24 19.5-6.29 3.79-4.61 6.11-9.41 8.37-14.9 5.64-13.1 12.4-24.7 21.7-35.5 0.624-0.757 1.25-1.51 1.89-2.29 40.4-47.7 115-53.4 164-17.3zm-125 43.6c-1.06 0.922-1.06 0.922-2.15 1.86-9.44 8.71-15 19.9-20 31.6-9.36 21.8-9.36 21.8-16.9 25.6v2c-0.566 0.262-1.13 0.523-1.71 0.793-2.48 1.31-4.6 2.85-6.85 4.52-18.4 13-39.7 12.7-61.3 13.2-1.57 0.0433-3.15 0.087-4.72 0.131-3.8 0.105-7.6 0.207-11.4 0.307-0.0697 10.3-0.123 20.6-0.155 30.8-0.0156 4.77-0.0368 9.54-0.0709 14.3-0.0327 4.61-0.0506 9.22-0.0583 13.8-0.00552 1.75-0.0163 3.51-0.0326 5.26-0.183 16.4-0.183 16.4 7.32 30.8 8.9 8.42 18.9 9.45 30.7 9.38 1.87 0.00702 1.87 0.00702 3.78 0.0142 3.44 0.00985 6.87 0.00637 10.3-0.00296 3.72-0.00682 7.43 0.0037 11.1 0.0119 7.27 0.0133 14.5 0.0105 21.8 0.00176 5.91-0.00679 11.8-0.00769 17.7-0.00443 1.26 6.9e-4 1.26 6.9e-4 2.55 0.00139 1.71 9.59e-4 3.42 0.00193 5.13 0.00292 16 0.00855 32.1-0.00127 48.1-0.0174 13.7-0.0134 27.5-0.0111 41.2 0.00276 16 0.0161 32 0.0224 47.9 0.0132 1.7-9.56e-4 3.41-0.0019 5.11-0.00283 0.839-4.63e-4 1.68-9.26e-4 2.54-0.0014 5.9-0.00259 11.8 0.00177 17.7 0.00884 7.19 0.00843 14.4 0.0061 21.6-0.00984 3.67-0.00786 7.33-0.011 11-0.00105 3.98 0.0106 7.96-0.0021 11.9-0.017 1.15 0.00669 2.3 0.0134 3.49 0.0203 10.2-0.0742 19.1-1.77 26.8-8.86 8.99-9.37 7.82-21.9 7.7-34-0.0056-1.78-0.00987-3.56-0.0129-5.34-0.0114-4.65-0.0408-9.3-0.0741-14-0.0308-4.76-0.0444-9.52-0.0595-14.3-0.032-9.32-0.0832-18.6-0.146-27.9-3.44-1.15-6.03-1.08-9.66-1.03-1.36 0.0146-2.71 0.0285-4.07 0.042-0.708 0.00834-1.42 0.0167-2.15 0.0253-25.9 0.268-49.9-0.748-69.8-19.7-8.34-8.53-13.3-17.7-18.3-28.4-4.29-9.04-8.4-17.4-15-25-0.632-0.822-1.26-1.64-1.91-2.49-11.7-14.1-31.1-22.3-49-24.3-22.6-1.76-43.3 5.69-60.1 20.8z" fill="#000002"/>
<path transform="translate(994,755)" d="m0 0c1.03 0.166 2.05 0.333 3.11 0.504 37.2 6.27 75.2 20.1 106 42.5 1.11 0.764 2.21 1.53 3.32 2.29 8.72 6.02 16.7 12.7 24.7 19.7 0.873 0.761 1.75 1.52 2.64 2.3 10.7 9.43 20.6 19.4 29.4 30.7 0.799 1.01 1.6 2.01 2.42 3.05 45.6 57.7 64.6 130 56.6 203-6.11 51.2-27.2 103-62 142 3.8 4.54 7.72 8.86 11.9 13 0.835 0.835 0.835 0.835 1.69 1.69 1.82 1.81 3.63 3.63 5.45 5.44 1.27 1.27 2.54 2.54 3.81 3.8 3.32 3.32 6.65 6.63 9.97 9.95 3.4 3.39 6.8 6.78 10.2 10.2 6.65 6.64 13.3 13.3 20 19.9 0.541-0.412 1.08-0.824 1.64-1.25 0.714-0.54 1.43-1.08 2.16-1.64 0.706-0.536 1.41-1.07 2.14-1.62 11.6-8.4 24.1-10.8 38.1-9.49 13.7 2.53 23.9 10.2 33.5 20 0.887 0.881 1.77 1.76 2.69 2.67 2.43 2.42 4.85 4.85 7.27 7.28 2.62 2.63 5.25 5.25 7.89 7.88 5.14 5.13 10.3 10.3 15.4 15.4 5.98 6 12 12 18 18 10.7 10.7 21.4 21.4 32 32.1 10.3 10.4 20.7 20.7 31.1 31.1 11.3 11.3 22.6 22.6 33.9 33.9 1.21 1.21 2.41 2.41 3.62 3.62 0.593 0.594 1.19 1.19 1.8 1.8 4.17 4.17 8.33 8.34 12.5 12.5 5.09 5.08 10.2 10.2 15.2 15.3 2.59 2.6 5.17 5.19 7.77 7.77 2.82 2.81 5.63 5.63 8.43 8.46 1.22 1.21 1.22 1.21 2.46 2.44 15 15.2 23.8 33.4 24 54.9-0.0742 9.23-1.36 17.3-4.5 26-0.3 0.834-0.601 1.67-0.91 2.53-2.99 7.38-7.69 13.9-12.1 20.5h-2c-0.245 0.583-0.49 1.17-0.742 1.77-5.92 10.5-23.1 17.5-34.3 20.7-0.652 0.171-1.3 0.343-1.98 0.52-0.652 0.202-1.3 0.405-1.98 0.613-17.8 4.91-35.6-0.468-51.6-8.48-8.57-5.03-15.8-12.2-22.7-19.2-0.882-0.878-1.76-1.76-2.67-2.66-2.42-2.41-4.84-4.83-7.25-7.24-2.62-2.62-5.24-5.23-7.86-7.84-5.12-5.1-10.2-10.2-15.4-15.3-4.16-4.16-8.32-8.31-12.5-12.5-11.8-11.8-23.6-23.6-35.4-35.4-0.952-0.953-0.952-0.953-1.92-1.92-0.636-0.636-1.27-1.27-1.93-1.93-10.3-10.3-20.6-20.6-31-30.9-10.6-10.6-21.2-21.2-31.8-31.8-5.95-5.95-11.9-11.9-17.9-17.8-5.07-5.05-10.1-10.1-15.2-15.2-2.58-2.58-5.16-5.16-7.74-7.73-2.81-2.79-5.61-5.6-8.4-8.41-1.22-1.2-1.22-1.2-2.46-2.43-11.3-11.5-16.7-23.8-16.7-39.8 0.23-13.6 6.32-23.5 14.3-34.1-8-8.12-16-16.2-24-24.3-3.73-3.75-7.45-7.51-11.2-11.3-3.58-3.64-7.17-7.26-10.8-10.9-1.37-1.38-2.74-2.77-4.11-4.16-1.91-1.94-3.83-3.87-5.76-5.8-0.565-0.583-1.13-1.17-1.71-1.77-1.73-1.77-1.73-1.77-4.43-3.81-3.52 0.47-5.29 1.88-7.94 4.19-13.2 10.8-28 20-43.1 27.8-0.789 0.418-1.58 0.836-2.39 1.27-61.8 32.5-137 38.4-204 18.6-33.4-10.5-65.5-26.5-92.1-49.5-2.23-1.89-4.55-3.65-6.87-5.44-12.8-10.5-24.7-22.8-34.8-35.9-0.846-1.04-1.69-2.07-2.55-3.1-7.17-8.75-13.3-18-19.1-27.7-1.15-1.89-2.31-3.76-3.48-5.64-21.5-35.8-34.8-81.2-35.1-123-0.00701-0.876-0.014-1.75-0.0213-2.65-0.0174-2.81-0.0239-5.62-0.0256-8.43-6.75e-4 -0.962-0.00135-1.92-0.00204-2.92 0.0164-14.7 0.561-29 3.25-43.5 0.177-0.989 0.354-1.98 0.536-3 2.49-13.7 5.82-26.9 10.5-40 0.447-1.26 0.447-1.26 0.902-2.55 15.4-42.9 41.5-85.2 77.1-114 0.904-0.791 1.81-1.58 2.74-2.4 13.9-12.2 28.9-22.5 45.1-31.4 1.97-1.09 3.92-2.2 5.87-3.31 50.9-28.7 114-37.2 171-27.9zm-180 88c-0.875 0.664-1.75 1.33-2.65 2.01-6.79 5.29-13.1 11.1-19.3 17-0.836 0.785-0.836 0.785-1.69 1.59-9.56 9.03-17.6 18.7-25.3 29.4-0.432 0.588-0.865 1.18-1.31 1.78-34.1 46.6-47.1 107-39.1 164 5.34 34 17.8 68.4 38.4 96.3 0.755 1.03 1.51 2.05 2.29 3.11 13.1 17.5 27.5 33.5 45.1 46.7 1.47 1.11 2.9 2.27 4.33 3.43 43.4 34.5 103 49.5 158 44 37.9-4.37 75.3-16.8 107-39.2 0.612-0.437 1.22-0.874 1.85-1.32 9.68-6.95 18.6-14.4 27.1-22.7 0.911-0.872 0.911-0.872 1.84-1.76 41.5-39.8 66.6-96.7 68.2-154 0.04-1.13 0.0799-2.26 0.121-3.43 0.87-46.8-13-96.8-41.1-135-0.573-0.779-0.573-0.779-1.16-1.57-4.94-6.69-10.1-13.1-15.8-19.2-1.79-1.96-3.49-3.96-5.18-6-35.2-40.2-90.6-65.6-143-70-56.6-3.45-112 9.92-157 44.8zm436 461c-1.75 1.95-3.36 3.96-5 6-2.85 3.01-5.85 5.75-9 8.44-2.46 2.12-4.66 4.22-6.69 6.75-2.23 2.71-4.5 4.72-7.31 6.81 0.206 5.67 4 8.54 7.81 12.3 0.682 0.681 1.36 1.36 2.07 2.06 1.44 1.43 2.89 2.86 4.34 4.29 2.23 2.19 4.44 4.39 6.64 6.6 1.4 1.39 2.8 2.78 4.21 4.17 0.665 0.662 1.33 1.32 2.01 2.01 0.617 0.605 1.23 1.21 1.87 1.83 0.543 0.536 1.09 1.07 1.65 1.62 1.37 1.35 1.37 1.35 3.41 1.14v2c3.82-0.56 5.59-2.21 8.25-4.94 0.706-0.71 1.41-1.42 2.14-2.15 1.82-1.75 1.82-1.75 1.61-3.91 0.557-0.227 1.11-0.454 1.69-0.688 2.97-1.69 5.03-3.78 7.31-6.31v-2c0.99-0.33 1.98-0.66 3-1v-2h2c1.6-1.62 1.6-1.62 3.25-3.69 3.01-3.55 6.09-6.45 9.75-9.31-0.585-3.4-1.67-5.05-4.1-7.48-0.651-0.66-1.3-1.32-1.97-2-0.707-0.701-1.41-1.4-2.14-2.12-0.724-0.727-1.45-1.45-2.19-2.2-1.53-1.53-3.07-3.06-4.61-4.59-2.36-2.34-4.7-4.7-7.04-7.06-1.49-1.49-2.98-2.97-4.47-4.46-0.703-0.709-1.41-1.42-2.13-2.15-0.657-0.648-1.31-1.3-1.99-1.96-0.577-0.574-1.15-1.15-1.75-1.74-4.9-3.74-9.24 2.5-12.6 5.77zm75.2 63.4c-0.976 0.986-0.976 0.986-1.97 1.99-0.741 0.741-1.48 1.48-2.24 2.24-0.794 0.809-1.59 1.62-2.41 2.45-0.817 0.821-1.63 1.64-2.48 2.49-2.62 2.63-5.22 5.27-7.82 7.92-1.77 1.78-3.54 3.57-5.31 5.35-4.34 4.38-8.68 8.76-13 13.2 3.77 4.5 7.66 8.81 11.8 13 0.553 0.557 1.11 1.11 1.68 1.69 1.84 1.85 3.67 3.69 5.51 5.53 1.32 1.33 2.65 2.66 3.97 3.99 4.33 4.35 8.67 8.7 13 13 1.5 1.5 2.99 3 4.49 4.5 7.03 7.05 14.1 14.1 21.1 21.2 8.11 8.12 16.2 16.2 24.3 24.4 6.27 6.3 12.5 12.6 18.8 18.9 3.75 3.75 7.49 7.5 11.2 11.3 3.51 3.54 7.04 7.07 10.6 10.6 1.29 1.29 2.58 2.58 3.86 3.88 12.9 13.4 12.9 13.4 30.2 18.5 7.95-0.096 14.3-2.08 20.3-7.44 5.92-6.59 7.92-14.2 7.56-22.9-2.22-15-17.5-26.2-27.7-36.4-1.32-1.32-2.63-2.64-3.95-3.96-3.55-3.56-7.1-7.12-10.6-10.7-2.22-2.22-4.44-4.45-6.66-6.67-6.95-6.96-13.9-13.9-20.8-20.9-8.02-8.02-16-16.1-24-24.1-6.2-6.22-12.4-12.4-18.6-18.7-3.71-3.71-7.41-7.42-11.1-11.1-3.47-3.49-6.94-6.96-10.4-10.4-1.28-1.28-2.55-2.56-3.83-3.84-1.73-1.74-3.47-3.48-5.22-5.21-0.76-0.772-0.76-0.772-1.53-1.56-3.9-3.95-3.9-3.95-8.62-2.06z" fill="#000002"/>
<path transform="translate(209 200)" d="m0 0c1.58-0.00515 3.17-0.0124 4.75-0.0217 4.28-0.0184 8.55-0.00564 12.8 0.0141 4.49 0.0165 8.98 0.00756 13.5 0.00248 7.53-0.00451 15.1 0.0113 22.6 0.0393 8.7 0.0321 17.4 0.032 26.1 0.0148 8.39-0.0159 16.8-0.00912 25.2 0.00794 3.56 0.00685 7.12 0.00586 10.7-0.00154 4.19-0.00769 8.39 0.00454 12.6 0.0318 1.54 0.00686 3.07 0.00701 4.61-2.16e-4 9.05-0.0377 16.1 0.136 23.3 6.22 5 6.17 7.65 11.8 7.36 19.8-1.03 7.46-5.65 12.8-11.3 17.5-40.6 22.3-92.7 3-139 3v1006h483c9.23 4.61 13.4 7.2 17.4 16.1 1.4 6.59 0.805 12-2.38 17.9-4.17 5.88-8.39 10-15.6 11.6-4 0.527-7.94 0.582-12 0.573-1.29 0.00308-1.29 0.00308-2.6 0.00622-2.89 0.00567-5.77 0.00421-8.66 0.00279-2.09 0.00258-4.17 0.0056-6.26 9e-3 -5.74 0.00807-11.5 0.00986-17.2 0.0106-6.19 0.00185-12.4 0.0094-18.6 0.0161-14.2 0.0143-28.5 0.0201-42.7 0.0247-7.04 0.00234-14.1 0.00594-21.1 0.0097-24.1 0.0128-48.2 0.0236-72.3 0.027-1.51 2.22e-4 -3.02 4.43e-4 -4.53 6.65e-4 -1.52 2.21e-4 -3.03 4.41e-4 -4.55 6.61e-4 -3.04 4.43e-4 -6.08 8.9e-4 -9.12 0.00134-0.754 1.09e-4 -1.51 2.19e-4 -2.28 3.31e-4 -24.4 0.00363-48.9 0.0196-73.3 0.0429-25.8 0.0246-51.7 0.0383-77.5 0.0395-2.84 1.71e-4 -5.67 3.87e-4 -8.51 6.34e-4 -1.05 8.37e-5 -1.05 8.37e-5 -2.12 1.69e-4 -11.2 0.00115-22.5 0.0122-33.7 0.0267-11.3 0.0144-22.6 0.0174-33.9 0.00956-6.12-0.00391-12.2-0.00294-18.4 0.0111-5.6 0.0127-11.2 0.0116-16.8-5.91e-4 -2.03-0.00197-4.06 0.00116-6.08 0.00984-2.75 0.0111-5.51 0.00363-8.26-0.00839-0.789 0.0076-1.58 0.0152-2.39 0.023-7.08-0.0668-13.4-1.84-18.8-6.64-0.636-0.541-1.27-1.08-1.93-1.64-4.54-5.43-5.26-11.1-5.44-17.9-0.0497-1.4-0.0497-1.4-0.1-2.83-0.493-16.3-0.36-32.7-0.349-49 0.00256-5.29-7.31e-4 -10.6-0.00324-15.9-0.0036-9.26-0.00351-18.5-9.53e-4 -27.8 0.00379-13.8 0.00184-27.5-0.00121-41.3-0.00495-23.2-0.00515-46.3-0.00242-69.5 8.28e-5 -0.704 1.66e-4 -1.41 2.51e-4 -2.13 8.29e-5 -0.705 1.66e-4 -1.41 2.51e-4 -2.14 0.00253-21.5 0.00317-43 0.00198-64.5-7.75e-5 -1.44-1.55e-4 -2.88-2.31e-4 -4.33-3.1e-4 -5.8-6.29e-4 -11.6-9.6e-4 -17.4-9.17e-4 -16.2-0.00149-32.4-0.00179-48.6-1.36e-5 -0.737-2.73e-5 -1.47-4.14e-5 -2.23-4.09e-4 -23.5 7.16e-4 -47 0.00289-70.5 1.05e-4 -1.14 1.05e-4 -1.14 2.13e-4 -2.31 0.00114-12.4 0.00236-24.7 0.00359-37.1 0.00486-49.1 0.00463-98.1-2.31e-4 -147-0.00122-12.4-0.00243-24.7-0.00357-37.1-7.04e-5 -0.762-1.41e-4 -1.52-2.13e-4 -2.31-0.00216-23.5-0.00307-46.9-0.00264-70.4 1.36e-5 -0.737 2.72e-5 -1.47 4.12e-5 -2.23 3.12e-4 -16.2 9.46e-4 -32.3 0.00187-48.5 3.29e-4 -5.79 6.42e-4 -11.6 9.51e-4 -17.4 7.74e-5 -1.44 1.56e-4 -2.88 2.36e-4 -4.32 0.00119-21.5 1.78e-4 -43-0.00235-64.5-8.28e-5 -0.705-1.66e-4 -1.41-2.51e-4 -2.14-8.27e-5 -0.704-1.65e-4 -1.41-2.51e-4 -2.13-0.00276-23.7-0.00174-47.5 0.00353-71.2 0.00294-13.7 0.00312-27.4-6.46e-4 -41-0.00224-9.13-8.54e-4 -18.3 0.0035-27.4 0.00238-5.21 0.00318-10.4-4.06e-4 -15.6-0.00323-4.74-0.00186-9.47 0.00318-14.2 0.00101-1.7 3.42e-4 -3.41-0.00221-5.11-0.0354-25.4-0.0354-25.4 4.13-31.9 0.516-0.846 1.03-1.69 1.56-2.56 8.05-8.05 17.6-8.16 28.3-8.07z" fill="#000002"/>
<path transform="translate(1051,884)" d="m0 0c0.529 0.379 1.06 0.759 1.6 1.15 21.7 15.7 39.3 36 51.4 59.9 0.524 1.02 0.524 1.02 1.06 2.06 10.6 20.9 17.9 44.3 18.2 67.9 0.00975 0.752 0.0195 1.5 0.0295 2.28 0.171 16.6-0.0282 32.5-4.27 48.7-0.193 0.761-0.385 1.52-0.583 2.31-5.96 23.1-16.5 43.4-30.4 62.7-0.918 1.29-0.918 1.29-1.86 2.6-2.78 3.82-5.78 7.07-9.14 10.4-0.793 0.828-1.59 1.66-2.4 2.51-32.1 33.1-75.7 50.8-122 52.5-44.6 0.702-87.4-15.8-120-46.1-1.69-1.57-3.41-3.02-5.22-4.45-28.4-24.6-44.2-64.2-49.8-100-0.29-1.84-0.29-1.84-0.586-3.71-3.51-29.8-0.0969-69 17.2-94.6 4.23-4.92 9.01-8.3 15.5-8.82 8.24-0.0732 14 1.39 20.1 7.12 4.46 5.07 6.52 10.9 6.19 17.6-0.799 5-2.67 9.67-4.39 14.4-11.7 33.8-11 68.4 4.29 101 15.1 30.6 41.4 52.9 73.4 64.4 31.6 10.7 66.7 7.96 96.6-6.54 9.8-4.97 18.5-10.5 26.7-17.9 0.813-0.672 1.63-1.34 2.46-2.04 23.1-19.6 36.9-49.2 40.5-79 1.06-16.6 0.818-33-4-49-0.209-0.714-0.418-1.43-0.633-2.16-9.96-33.2-32.2-59-62.2-75.8-7.39-3.93-15.2-6.61-23.1-9.08-1.5-0.476-1.5-0.476-3.02-0.961-29.9-8.86-61.1-3.91-89 8.64-7.41 3.23-13.8 4.05-21.5 1.39-6.36-2.83-10.2-7.1-12.7-13.6-1.9-7.21-1.36-14 2.34-20.5 3.62-4.98 6.95-7.49 12.5-10.1 0.706-0.339 1.41-0.677 2.14-1.03 55.9-26.4 124-20 174 16.1z" fill="#000002"/>
<path transform="translate(354 651)" d="m0 0c1.04-0.00611 2.08-0.0122 3.16-0.0185 3.49-0.0156 6.99-0.00273 10.5 0.01 2.53-0.00532 5.06-0.0124 7.58-0.021 5.5-0.0148 11-0.0171 16.5-0.0084 8.18 0.0129 16.4 0.00291 24.5-0.0115 14.6-0.0249 29.2-0.0268 43.8-0.0187 12.8 0.00707 25.6 0.00713 38.4 1.37e-4 1.71-9.11e-4 3.43-0.00182 5.14-0.00273 2.58-0.00138 5.17-0.00277 7.75-0.00419 24-0.013 48-0.0181 72.1-0.00647 1.36 6.57e-4 1.36 6.57e-4 2.74 0.00133 7.35 0.00361 14.7 0.00744 22.1 0.0113 28.7 0.0148 57.4 0.00607 86.1-0.022 32.2-0.0314 64.5-0.0464 96.7-0.0362 3.44 0.00104 6.87 0.00202 10.3 0.00298 1.27 3.73e-4 1.27 3.73e-4 2.56 7.54e-4 12.8 0.00344 25.5-0.00587 38.3-0.0215 14.5-0.0178 29.1-0.0179 43.6 0.00535 8.13 0.0125 16.3 0.0112 24.4-0.00988 6.07-0.0142 12.1-0.00232 18.2 0.0198 2.46 0.0049 4.91 0.00133 7.37-0.0115 3.34-0.0162 6.67-0.00155 10 0.0207 0.955-0.012 1.91-0.024 2.89-0.0363 6.89 0.094 12.1 1.94 17.9 5.66 2.25 2.35 2.25 2.35 3.56 4.62 0.455 0.755 0.91 1.51 1.38 2.29 3 5.91 3.15 12.5 1.22 18.8-2.75 6.09-6.35 9.97-12.2 13.3-12.4 4.14-28.2 2.14-41.2 2.13-2.46 0.00187-4.91 0.00417-7.37 0.00687-5.32 0.00483-10.6 0.00658-16 0.00554-7.91-0.00153-15.8 0.00265-23.7 0.00787-15 0.00965-29.9 0.0125-44.9 0.0131-11.5 4.6e-4 -23.1 0.00252-34.6 0.0057-3.33 8.98e-4 -6.65 0.00179-9.98 0.00267-0.827 2.21e-4 -1.65 4.42e-4 -2.51 6.7e-4 -23.3 0.00615-46.5 0.0101-69.8 0.00966-0.876-1.56e-5 -1.75-3.12e-5 -2.65-4.72e-5 -4.44-8.31e-5 -8.88-1.82e-4 -13.3-2.85e-4 -0.882-1.99e-5 -1.76-3.99e-5 -2.67-6.04e-5 -1.78-4.04e-5 -3.57-8.22e-5 -5.35-1.25e-4 -27.8-6.13e-4 -55.5 0.0069-83.3 0.0206-31.2 0.0154-62.4 0.024-93.6 0.023-3.33-7.46e-5 -6.65-1.23e-4 -9.98-1.54e-4 -0.819-1.17e-5 -1.64-2.33e-5 -2.48-3.53e-5 -13.2-3.08e-5 -26.4 0.00635-39.5 0.015-13.2 0.00847-26.5 0.00947-39.7 0.00289-7.86-0.0037-15.7-0.00186-23.6 0.00794-5.87 0.0067-11.7 0.00295-17.6-0.00487-2.38-0.00154-4.75 3.04e-4 -7.13 0.00586-3.23 0.00705-6.45 0.00177-9.68-0.00656-0.923 0.00497-1.85 0.00994-2.8 0.0151-8.13-0.0444-16.6-0.464-23.1-5.71-4.97-5.04-7.6-10.7-7.85-17.7 0.086-6.52 2.53-11.6 6.56-16.6 6.85-5.45 12.6-6.78 21.3-6.69z" fill="#000002"/>
<path transform="translate(676 376)" d="m0 0c0.751-9.57e-4 1.5-0.00191 2.28-0.0029 1.59-6.77e-4 3.17 0.00114 4.76 0.00534 2.37 0.00529 4.74 7.47e-5 7.11-0.00635 25.5-0.0141 49.5 1.44 68.8 19.9 19.3 19.3 27.2 45 27.5 72-0.0868 15.5-2.9 31.1-9.44 45.2-0.679 1.53-0.679 1.53-1.37 3.1-8.7 18.7-24.3 32.8-43.6 39.9-13.8 3.93-27.3 4.27-41.6 4.35-2.21 0.0166-4.41 0.0439-6.62 0.082-3.21 0.0551-6.42 0.0767-9.63 0.0913-0.973 0.0227-1.95 0.0453-2.95 0.0687-8.07-0.0246-14.9-2.23-20.7-8.03-4.05-6.64-5.68-11.8-5.7-19.6-0.00571-1.21-0.0114-2.42-0.0173-3.66-0.00112-1.32-0.00224-2.64-0.00339-3.99-0.00463-1.41-0.00966-2.82-0.015-4.22-0.0131-3.82-0.0196-7.64-0.024-11.5-0.00294-2.39-0.00704-4.77-0.0115-7.16-0.0137-7.47-0.0233-14.9-0.0272-22.4-0.00448-8.62-0.022-17.2-0.051-25.9-0.0216-6.67-0.0317-13.3-0.033-20-0.00105-3.98-0.00693-7.96-0.0248-11.9-0.0165-3.74-0.0186-7.49-0.00986-11.2 0.00113-2.02-0.0126-4.05-0.0268-6.07 0.0459-10 1.71-15.8 8.56-23.2 6.35-6.03 14.5-5.89 22.8-5.86zm15 47.1c-0.0952 2.83-0.126 5.64-0.114 8.47-1.46e-4 0.888-2.92e-4 1.78-4.43e-4 2.69 6.99e-4 2.95 0.00849 5.9 0.0163 8.85 0.00186 2.04 0.00329 4.08 0.00429 6.12 0.00383 5.38 0.0137 10.8 0.0247 16.1 0.0102 5.48 0.0148 11 0.0198 16.4 0.0107 10.8 0.0278 21.5 0.0488 32.3 3.38 0.0456 6.76 0.0732 10.1 0.0977 1.43 0.0196 1.43 0.0196 2.89 0.0397 6.72 0.0365 12.2-0.376 18-4.14 0.699-0.44 1.4-0.879 2.12-1.33 7.45-5.55 12.9-16.3 14.6-25.4 2.1-17.6 1.95-35.8-8.66-50.9-5.71-6.84-12.4-9.16-21.1-10.4-9.59-1.14-9.59-1.14-18 1z" fill="#000002"/>
<path transform="translate(349 752)" d="m0 0c1.24-0.00583 2.48-0.0117 3.76-0.0177 1.38 0.00363 2.75 0.00746 4.13 0.0115 1.46-0.00302 2.93-0.00691 4.39-0.0116 4.02-0.0103 8.04-0.00809 12.1-0.00382 4.34 0.00246 8.67-0.00654 13-0.014 8.5-0.0128 17-0.0145 25.5-0.0122 6.91 0.00178 13.8 3.61e-5 20.7-0.00422 1.47-8.93e-4 1.47-8.93e-4 2.98-0.0018 2-0.00121 3.99-0.00243 5.99-0.00364 18.7-0.0109 37.4-0.00871 56.2-0.00262 17.1 0.00517 34.3-0.00608 51.4-0.0251 17.6-0.0194 35.2-0.0276 52.7-0.0239 9.87 0.00191 19.7-5.88e-4 29.6-0.0147 8.41-0.0119 16.8-0.0133 25.2-0.00121 4.29 0.00589 8.58 0.00697 12.9-5e-3 3.93-0.0108 7.85-0.00778 11.8 0.00626 1.42 0.00265 2.84 2.63e-4 4.26-0.00774 16.2-0.0851 16.2-0.0851 22.8 5.47 0.632 0.755 1.26 1.51 1.91 2.29 0.647 0.75 1.29 1.5 1.96 2.27 4.12 5.82 4.42 11.4 3.66 18.4-1.75 6.71-5.14 11.3-11 15-7.9 3.45-15.9 3.43-24.4 3.38-1.44 0.00346-2.88 0.00823-4.33 0.0142-3.94 0.0125-7.88 0.00636-11.8-0.00296-4.26-0.00681-8.51 0.0037-12.8 0.0119-8.33 0.0133-16.7 0.0105-25 0.00176-6.77-0.00678-13.5-0.00769-20.3-0.00443-1.45 6.9e-4 -1.45 6.9e-4 -2.92 0.00139-1.96 9.59e-4 -3.92 0.00193-5.88 0.00292-18.4 0.00855-36.7-0.00127-55.1-0.0174-15.8-0.0134-31.5-0.0111-47.3 0.00276-18.3 0.0161-36.6 0.0224-54.9 0.0132-1.95-9.56e-4 -3.9-0.0019-5.86-0.00283-1.44-6.94e-4 -1.44-6.94e-4 -2.91-0.0014-6.76-0.00259-13.5 0.00178-20.3 0.00884-8.24 0.00842-16.5 0.00612-24.7-0.00984-4.2-0.00787-8.41-0.011-12.6-0.00105-3.85 0.00896-7.7 0.00399-11.6-0.0119-1.39-0.00334-2.78-0.00167-4.17 0.00563-9.24 0.0448-18.7-0.0754-25.9-6.76-4.68-5.66-7.21-11.8-6.76-19.2 1.26-7.51 4.55-12.2 10.3-17 4.34-2.92 8.04-3.66 13.2-3.66z" fill="#000002"/>
<path transform="translate(506,378)" d="m0 0c5.8 4.91 8.69 9.49 10 17 0.267 3.48 0.271 6.95 0.255 10.4 0.00362 1.01 0.00724 2.03 0.011 3.07 0.00686 2.19 0.00941 4.38 0.00805 6.57-9.69e-4 3.47 0.012 6.94 0.029 10.4 0.0462 9.86 0.0709 19.7 0.0775 29.6 0.00502 6.04 0.0293 12.1 0.0653 18.1 0.00979 2.3 0.0121 4.59 0.00683 6.89-0.00707 3.21 0.0102 6.42 0.0328 9.63-0.00817 0.944-0.0163 1.89-0.0248 2.86 0.075 6 1.06 9.52 4.54 14.4 6.79 6.09 14.1 8.49 23.1 8.32 7.62-0.847 15.6-4.6 20.7-10.4 1.91-3.12 2.31-5.68 2.32-9.26 0.00401-0.882 0.00802-1.76 0.0121-2.67-5.29e-4 -0.965-0.00106-1.93-0.0016-2.92 0.00521-1.53 0.00521-1.53 0.0105-3.09 0.00736-2.21 0.0127-4.43 0.0163-6.64 0.00717-3.51 0.0228-7.02 0.0413-10.5 0.0525-9.98 0.1-20 0.116-29.9 0.0101-6.1 0.0395-12.2 0.0813-18.3 0.0123-2.32 0.0174-4.64 0.0152-6.97-0.00236-3.26 0.0199-6.52 0.0475-9.78-0.0099-1.43-0.0099-1.43-0.02-2.88 0.104-7.49 1.76-14.3 6.41-20.3 6.31-5.12 11.4-7.96 19.6-7.6 6.91 0.89 11.8 3.83 16.4 9 3 4.24 4.37 7.68 4.39 12.9 0.0128 1.43 0.0128 1.43 0.0258 2.9-0.00136 1.56-0.00136 1.56-0.00275 3.14 0.00672 1.1 0.0134 2.2 0.0204 3.34 0.019 3.64 0.0229 7.29 0.0251 10.9 0.00643 2.54 0.0132 5.08 0.0202 7.62 0.012 5.33 0.0158 10.7 0.0145 16-0.0012 6.13 0.0198 12.3 0.0515 18.4 0.0295 5.92 0.0365 11.8 0.0353 17.8 0.00235 2.51 0.0111 5.01 0.0267 7.52 0.14 25 0.14 25-4.48 35.5-0.424 1.04-0.849 2.07-1.29 3.14-7.47 17.6-23.8 28.5-40.7 35.9-17.8 6.17-38.9 6.36-56.1-1.67-10.5-5.15-20.1-11.5-27.9-20.3-0.766-0.853-0.766-0.853-1.55-1.72-9.61-11.7-12.8-26-12.7-40.7-0.00511-1.1-0.0102-2.21-0.0155-3.34-0.0138-3.62-0.0129-7.25-0.0106-10.9-0.00389-2.53-0.00822-5.06-0.013-7.59-0.00745-5.29-0.00732-10.6-0.00191-15.9 0.00605-6.1-0.00631-12.2-0.0276-18.3-0.0198-5.89-0.0228-11.8-0.0193-17.7-5.13e-4 -2.5-0.00575-5-0.0158-7.5-0.0123-3.49-0.00559-6.98 0.00601-10.5-0.00764-1.03-0.0153-2.06-0.0232-3.12 0.0626-8.52 2.43-13.6 8.4-19.9 9.08-6.43 18.4-6.59 28-1z" fill="#000002"/>
<path transform="translate(384 378)" d="m0 0c10.5 7.99 14.5 23.4 18.8 35.4 1.21 3.37 2.43 6.73 3.65 10.1 0.619 1.7 1.24 3.41 1.86 5.11 2.58 7.1 5.23 14.2 7.92 21.2 0.879 2.31 1.76 4.62 2.64 6.93 0.231 0.605 0.461 1.21 0.699 1.83 5.85 15.3 11.7 30.7 17.4 46.1 1.18 3.14 2.37 6.29 3.56 9.43 1.32 3.49 2.62 6.99 3.92 10.5 0.364 0.952 0.727 1.9 1.1 2.88 2.73 7.45 3.51 13.9 0.382 21.4-2.8 5.21-6.67 9.4-12 12-6.43 1.93-13.9 1.94-20.1-0.789-9.22-5.75-11.3-14-14.9-24.2h-60c-1.65 4.29-3.3 8.58-5 13-3.09 5.59-6.93 9.54-12.8 12.3-7.31 1.55-14.7 1.55-21.2-2.31-5.53-4.3-9.2-9.06-10.3-16.1-0.872-13.5 7.48-28.7 12.3-41.1 1.99-5.15 3.97-10.3 5.95-15.5 0.415-1.08 0.83-2.16 1.26-3.27 5.67-14.8 11.2-29.5 16.8-44.3 1.95-5.18 3.9-10.4 5.86-15.5 0.841-2.22 1.68-4.45 2.52-6.67 1.32-3.5 2.65-6.99 3.98-10.5 0.398-1.06 0.797-2.12 1.21-3.21 8.34-21.8 8.34-21.8 18.7-26.9 9.02-3.36 17.6-2.63 25.9 2.36zm-15.1 79.7c-3.21 6.15-5.81 12.4-8.25 18.9-0.364 0.949-0.727 1.9-1.1 2.88-1.9 4.51-1.9 4.51-2.65 9.25h24c-2.08-6.92-4.2-13.7-6.56-20.6-0.304-0.9-0.607-1.8-0.92-2.73-0.296-0.854-0.592-1.71-0.896-2.59-0.264-0.769-0.527-1.54-0.799-2.33-0.684-1.98-0.684-1.98-2.82-2.79z" fill="#000002"/>
<path transform="translate(356 852)" d="m0 0c1.17-0.00468 2.34-0.00936 3.54-0.0142 3.23-0.00987 6.46-0.00635 9.69 0.00296 3.49 0.0068 6.98-0.0037 10.5-0.0119 6.83-0.0133 13.7-0.0105 20.5-0.00176 5.55 0.00678 11.1 0.00769 16.7 0.00443 0.79-4.6e-4 1.58-9.19e-4 2.4-0.00139 1.61-9.59e-4 3.21-0.00193 4.82-0.00292 15.1-0.00855 30.1 0.00128 45.2 0.0174 12.9 0.0134 25.8 0.0111 38.7-0.00276 15-0.0161 30-0.0224 45-0.0132 1.6 9.56e-4 3.2 0.0019 4.8 0.00283 1.18 6.94e-4 1.18 6.94e-4 2.39 0.0014 5.54 0.00259 11.1-0.00178 16.6-0.00884 6.76-0.00842 13.5-0.00612 20.3 0.00984 3.45 0.00787 6.89 0.011 10.3 0.00105 3.74-0.00819 7.48 0.00208 11.2 0.017 1.63-0.01 1.63-0.01 3.29-0.0203 9.09 0.0706 15.8 1.74 22.5 8.4 4.28 6.08 5.74 11.6 5 19-1.48 6.21-4.42 11.4-9.7 15.2-5.06 3.07-9.52 3.9-15.3 3.91-0.998 0.00384-2 0.00768-3.03 0.0116-1.63-0.0013-1.63-0.0013-3.3-0.00263-1.16 0.00297-2.33 0.00594-3.52 9e-3 -3.22 0.00717-6.45 0.00986-9.67 0.0106-3.48 0.00185-6.96 0.0094-10.4 0.0161-7.61 0.0136-15.2 0.0196-22.8 0.024-4.75 0.00276-9.5 7e-3 -14.2 0.0115-13.2 0.0122-26.3 0.0225-39.5 0.0259-0.841 2.2e-4 -1.68 4.39e-4 -2.55 6.65e-4 -1.26 3.27e-4 -1.26 3.27e-4 -2.56 6.61e-4 -1.71 4.43e-4 -3.42 8.9e-4 -5.13 0.00134-0.848 2.21e-4 -1.7 4.43e-4 -2.57 6.71e-4 -13.7 0.00395-27.5 0.0214-41.2 0.0447-14.1 0.0237-28.2 0.0362-42.3 0.0373-7.92 9.17e-4 -15.8 0.00667-23.8 0.0248-6.74 0.0154-13.5 0.0205-20.2 0.0123-3.44-0.00391-6.88-0.00297-10.3 0.0111-3.73 0.0127-7.46 0.00687-11.2-0.00358-1.09 0.00806-2.17 0.0161-3.29 0.0244-7.87-0.0517-13.8-1.3-19.9-6.76-4.76-5.47-7.32-11.9-6.91-19.1 1.14-5.92 3.84-11.4 8.36-15.5 7.43-4.9 13-5.5 21.8-5.44z" fill="#000002"/>
<path transform="translate(356 952)" d="m0 0c1.05-0.00383 2.09-0.00765 3.17-0.0116 3.5-0.0103 6.99-0.00634 10.5-0.00237 2.51-0.00435 5.02-0.00953 7.53-0.0155 6.1-0.012 12.2-0.0145 18.3-0.0122 4.96 0.00178 9.92 2.97e-5 14.9-0.00422 0.707-5.95e-4 1.41-0.00119 2.14-0.0018 1.44-0.00121 2.87-0.00243 4.31-0.00364 13.5-0.0109 26.9-0.00872 40.4-0.00262 12.3 0.00517 24.6-0.00609 36.9-0.0251 12.6-0.0194 25.3-0.0276 37.9-0.0239 7.1 0.00191 14.2-5.61e-4 21.3-0.0147 6.67-0.0132 13.3-0.0106 20 0.00241 2.45 0.00237 4.89-3.72e-4 7.34-0.00862 3.34-0.0105 6.69-0.00237 10 0.0103 1.45-0.0111 1.45-0.0111 2.92-0.0223 8.54 0.068 16 1.69 22.3 7.66 4.66 5.38 6.85 11.7 6.36 18.9-1.02 6.56-4.22 11.2-8.85 15.9-4.73 2.97-9.01 4.12-14.5 4.13-0.912 0.00446-1.82 0.00892-2.76 0.0135-0.998-1.84e-4 -2-3.69e-4 -3.03-5.59e-4 -1.06 0.00368-2.13 0.00735-3.22 0.0111-3.58 0.011-7.15 0.0149-10.7 0.0187-2.56 0.00626-5.12 0.0129-7.68 0.0199-7.69 0.0192-15.4 0.0298-23.1 0.0387-3.62 0.00439-7.24 0.00975-10.9 0.015-12 0.017-24.1 0.0315-36.1 0.0387-3.12 0.00191-6.25 0.00383-9.37 0.00579-0.776 4.84e-4 -1.55 9.67e-4 -2.35 0.00147-12.6 0.0083-25.1 0.0336-37.7 0.0661-12.9 0.0331-25.8 0.0511-38.7 0.0543-7.25 0.00216-14.5 0.0109-21.7 0.0365-6.82 0.024-13.6 0.0275-20.5 0.0172-2.5-4.96e-4 -5.01 0.00585-7.51 0.0196-3.42 0.0177-6.83 0.0106-10.3-0.00253-1.48 0.0165-1.48 0.0165-3 0.0332-7.25-0.0674-12.5-1.68-18.1-6.45-5.19-6.19-7.34-11.3-7.13-19.4 0.927-6.63 4.04-12 9.25-16.2 6.6-4.75 13.8-4.79 21.6-4.76z" fill="#000002"/>
<path transform="translate(362 1052)" d="m0 0c0.968-0.00156 1.94-0.00312 2.93-0.00473 3.22-0.00396 6.44-8.39e-4 9.65 0.00232 2.32-0.00136 4.64-0.00314 6.96-0.00531 6.28-0.00455 12.6-0.00279 18.8 3.79e-4 5.92 0.00228 11.8 5.36e-4 17.8-9.27e-4 12.5-0.00285 24.9 4.2e-4 37.4 0.0058 10.7 0.00446 21.3 0.0037 32-9.19e-4 12.4-0.00537 24.8-0.00745 37.2-0.00439 6.55 0.00155 13.1 0.00179 19.7-0.00154 6.17-0.00291 12.3-8.48e-4 18.5 0.00489 2.25 0.00131 4.5 9.61e-4 6.76-0.00126 9.99-0.00894 20 0.00454 30 0.477 1.3 0.0612 2.61 0.122 3.95 0.185 5.24 0.726 8.69 2.78 12.4 6.47 0.519 0.517 1.04 1.03 1.57 1.57 3.97 4.72 5.24 10.4 5.43 16.4-1.13 6.79-4.38 12.5-9.38 17.2-6.15 4.1-12.1 4.04-19.2 4.02-1.6 0.0068-1.6 0.0068-3.24 0.0137-3.58 0.0127-7.17 0.011-10.8 0.00937-2.57 0.00598-5.14 0.0128-7.71 0.0204-6.25 0.0166-12.5 0.0221-18.8 0.0232-5.08 9.51e-4 -10.2 0.00506-15.3 0.0114-14.4 0.0176-28.8 0.0268-43.3 0.0253-0.777-7.99e-5 -1.55-1.6e-4 -2.35-2.42e-4 -0.778-8.18e-5 -1.56-1.64e-4 -2.36-2.48e-4 -12.6-8.13e-4 -25.2 0.0183-37.8 0.0465-13 0.0287-25.9 0.0425-38.9 0.0408-7.27-6.64e-4 -14.5 0.00482-21.8 0.0264-6.84 0.0201-13.7 0.0195-20.5 0.00497-2.51-0.00209-5.02 0.00264-7.53 0.0147-3.43 0.0154-6.85 0.00616-10.3-0.00926-1.49 0.0154-1.49 0.0154-3.01 0.0312-7.26-0.0722-12.6-1.68-18.1-6.46-5.27-6.28-7.26-11.3-7.07-19.5 0.815-6.51 4.36-11.4 9.32-15.5 8.18-5.78 17.4-5.15 27.1-5.13z" fill="#000002"/>
<path transform="translate(925 374)" d="m0 0c1.85 0.00239 3.7 0.00329 5.55 0.00278 3.86 0.00311 7.72 0.0196 11.6 0.0465 4.93 0.034 9.87 0.0416 14.8 0.0401 3.81 5.45e-4 7.63 0.0115 11.4 0.026 1.82 0.00633 3.64 0.0103 5.46 0.0118 2.55 0.00437 5.09 0.0219 7.64 0.0432 0.741-9.06e-4 1.48-0.00181 2.25-0.00275 8.73 0.106 15.9 2.02 22.2 8.29 4.59 5.61 5.77 11 5.41 18.1-1.06 7.36-4.67 11.6-10.1 16.4-6.18 3.89-12.7 3.7-19.7 3.57-0.922-0.00902-1.84-0.018-2.79-0.0273-2.26-0.0234-4.51-0.0561-6.77-0.0977 0.00184 0.616 0.00369 1.23 0.00559 1.87 0.0442 15 0.0773 30 0.098 45 0.0103 7.26 0.0243 14.5 0.0473 21.8 0.02 6.33 0.0328 12.7 0.0373 19 0.0026 3.35 0.00974 6.7 0.0233 10.1 0.0145 3.75 0.0165 7.49 0.0156 11.2 0.0108 1.65 0.0108 1.65 0.0218 3.34-0.0261 9.77-1.21 17.4-8.25 24.7-6.38 4.78-13.2 5.95-21 5-7.11-2.14-11.1-5.61-14.9-11.9-1.79-3.53-2.19-6.3-2.22-10.2-0.00979-1.06-0.0196-2.11-0.0297-3.2-0.00863-1.74-0.00863-1.74-0.0174-3.51-0.0099-1.22-0.0198-2.44-0.03-3.7-0.0262-3.34-0.0481-6.69-0.068-10-0.0219-3.5-0.0493-6.99-0.0761-10.5-0.0499-6.62-0.0949-13.2-0.138-19.9-0.0494-7.54-0.104-15.1-0.16-22.6-0.114-15.5-0.221-31-0.323-46.5-0.605 0.0101-1.21 0.0203-1.83 0.0307-2.77 0.0405-5.53 0.0656-8.3 0.0903-0.952 0.0162-1.9 0.0325-2.88 0.0492-6.93 0.0466-12.6-0.377-18-5.17-5.01-5.38-7.82-11.6-8-19 0.918-7.56 4.27-13.1 10-18 8.74-5.57 19.1-4.55 29.1-4.46z" fill="#000002"/>
<path transform="translate(855,378)" d="m0 0c5.03 4.43 8.67 9.17 9.26 16 0.00595 1.13 0.0119 2.25 0.018 3.41 0.0171 1.94 0.0171 1.94 0.0346 3.93 0.00249 1.43 0.00474 2.86 0.00677 4.29 0.00926 1.51 0.0193 3.02 0.0301 4.53 0.0262 4.1 0.0391 8.2 0.048 12.3 0.00587 2.57 0.0141 5.13 0.023 7.7 0.0273 8.04 0.0467 16.1 0.0544 24.1 0.00895 9.26 0.044 18.5 0.102 27.8 0.0433 7.17 0.0634 14.3 0.0661 21.5 0.00209 4.28 0.0138 8.55 0.0496 12.8 0.0331 4.03 0.0372 8.05 0.0197 12.1-0.00153 1.47 0.00705 2.94 0.0269 4.41 0.116 9.09-0.616 16.1-6.74 23.1-6.85 5.53-13.3 6.74-22 6-5.8-1.84-10.9-4.68-14.2-9.96-2.82-5.46-3.9-9.9-3.92-16.1-0.00716-1.24-0.0143-2.47-0.0217-3.75-0.00284-1.37-0.00555-2.73-0.00815-4.1-0.00627-1.44-0.0129-2.88-0.0199-4.33-0.021-4.74-0.0314-9.47-0.0414-14.2-0.00405-1.63-0.00817-3.27-0.0124-4.9-0.019-7.67-0.0333-15.3-0.0416-23-0.00976-8.84-0.0361-17.7-0.0765-26.5-0.0302-6.85-0.045-13.7-0.0483-20.5-0.00234-4.08-0.0112-8.17-0.0365-12.3-0.0234-3.85-0.0275-7.69-0.0172-11.5 4.93e-4 -1.41-0.00576-2.81-0.0196-4.22-0.0858-9.26 0.515-17.5 6.35-25 9.87-8.02 19.6-10.2 31.1-3.6z" fill="#000002"/>
<path transform="translate(660 102)" d="m0 0c5.55 3.33 9.62 8.04 12.1 14 1.27 7.89 0.954 13.7-3.44 20.5-4.58 5.03-9.14 8.58-16.1 9.34-6.77 0.0811-12.5 0.0933-17.9-4.34-6.28-6.73-8.5-12.8-8.31-22 0.726-7.06 4.09-11.3 9.43-15.8 6.91-4.51 16.7-5.07 24.3-1.73z" fill="#000002"/>
</svg>
