<?xml version="1.0" encoding="UTF-8"?>
<svg id="Layer_1" data-name="Layer 1"
  xmlns="http://www.w3.org/2000/svg" viewBox="-5 -3 83.08 81.67">
  <defs>
    <style>
      .cls-1 {
        fill: #fff;
      }
    </style>
  </defs>
  <path class="cls-1" d="m37.51,0c.06.02.12.06.17.06,1.52.36,2.14,1.94,1.26,3.24-.44.66-.93,1.27-1.37,1.92-2.89,4.29-4.72,9.01-5.3,14.15-1.11,9.77,1.53,18.44,8,25.85,4.65,5.33,10.5,8.76,17.4,10.35,2.5.58,5.03.85,7.59.81.98-.02,1.74.38,2.18,1.25.45.88.32,1.72-.29,2.5-5.67,7.21-12.97,11.85-21.94,13.76-4.26.91-8.56,1.04-12.87.43-13.73-1.92-25.15-11.04-30.02-24.02C.48,45.4-.26,40.32.08,35.09.93,22.21,8.05,10.91,19.31,4.6,23.24,2.4,27.44.98,31.89.38c1.03-.14,2.07-.21,3.11-.32.13-.02.24-.04.37-.06h2.13,0Zm-5.12,4.67c-12.29,1.68-25.11,11.95-27.46,27.71-2.29,15.34,6.48,30.26,21.23,35.71,7.37,2.73,14.83,2.73,22.27.18,4.58-1.57,8.59-4.11,12.06-7.49-13.13-2.06-23.07-8.7-29.03-20.59-5.96-11.89-5.28-23.83.92-35.52Z"/>
  <path class="cls-1" d="m56.84,9.44c1.15,0,2.07.91,2.08,2.05,0,1.14-.92,2.07-2.06,2.07s-2.06-.9-2.07-2.06c0-1.16.89-2.06,2.05-2.06Z"/>
  <path class="cls-1" d="m52.37,32.1c-1.12.02-2.07-.92-2.08-2.06,0-1.12.92-2.08,2.06-2.09,1.12,0,2.07.92,2.08,2.06,0,1.12-.92,2.07-2.06,2.08h0Z"/>
  <path class="cls-1" d="m45.46,21.44c0,1.15-.92,2.06-2.07,2.05-1.15,0-2.05-.92-2.05-2.07s.92-2.06,2.07-2.06,2.05.93,2.05,2.08Z"/>
  <path class="cls-1" d="m38.88,67.91c-14.16-.35-26.48-10.46-29.57-24.28-.13-.56-.24-1.13-.33-1.71-.06-.46.13-.83.51-1.09.38-.25.77-.26,1.17-.05.41.21.54.59.64,1,.33,1.35.58,2.73,1.04,4.04,3.15,8.98,9.25,15.08,18.22,18.26,2.89,1.02,5.89,1.49,8.96,1.51.19,0,.39,0,.58.05.56.12.92.63.89,1.2-.04.57-.47,1.03-1.04,1.07-.36.02-.72,0-1.08,0Z"/>
  <path class="cls-1" d="m10.86,37.48c0,.3.02.59,0,.89-.03.59-.47,1.08-.98,1.13-.59.06-1.19-.31-1.27-.93-.09-.71-.1-1.44-.06-2.15.03-.56.62-.98,1.18-.95.59.03,1.05.48,1.1,1.09.02.31,0,.62,0,.92h.03Z"/>
</svg>