<?xml version="1.0" encoding="UTF-8"?>
<svg id="Layer_1" data-name="Layer 1" xmlns="http://www.w3.org/2000/svg" viewBox="0 0 85.69 94.52">
  <defs>
    <style>
      .cls-1 {
        fill: #fff;
      }
    </style>
  </defs>
  <path class="cls-1" d="m47.46,0c.07.03.15.07.22.08,1.92.46,2.71,2.46,1.6,4.1-.56.83-1.18,1.61-1.73,2.43-3.66,5.43-5.97,11.4-6.71,17.91-1.4,12.36,1.93,23.33,10.12,32.71,5.89,6.75,13.29,11.08,22.02,13.1,3.16.73,6.36,1.08,9.61,1.02,1.24-.02,2.2.48,2.76,1.58.57,1.11.4,2.18-.37,3.16-7.18,9.12-16.41,14.99-27.77,17.41-5.39,1.15-10.83,1.31-16.29.54-17.37-2.43-31.83-13.97-37.99-30.4C.61,57.44-.33,51.01.1,44.4,1.17,28.09,10.18,13.8,24.44,5.81c4.97-2.78,10.28-4.58,15.92-5.34,1.3-.18,2.62-.27,3.93-.4.16-.02.31-.05.47-.08.9,0,1.8,0,2.7,0Zm-6.48,5.9c-15.55,2.13-31.77,15.12-34.75,35.06-2.9,19.41,8.2,38.29,26.87,45.19,9.33,3.45,18.77,3.46,28.18.23,5.8-1.99,10.87-5.2,15.26-9.48-16.61-2.61-29.19-11.01-36.73-26.05-7.54-15.05-6.68-30.15,1.17-44.95Z"/>
  <path class="cls-1" d="m70.81,11.75c1.43,0,2.58,1.13,2.59,2.55,0,1.42-1.14,2.58-2.56,2.58-1.43,0-2.57-1.12-2.58-2.56-.01-1.44,1.11-2.57,2.55-2.57Z"/>
  <path class="cls-1" d="m65.23,39.98c-1.4.02-2.58-1.15-2.59-2.56-.01-1.4,1.15-2.59,2.56-2.6,1.4-.01,2.58,1.15,2.59,2.56.01,1.4-1.15,2.58-2.56,2.59Z"/>
  <path class="cls-1" d="m56.63,26.7c0,1.43-1.15,2.56-2.58,2.55-1.43,0-2.55-1.14-2.55-2.58,0-1.42,1.15-2.56,2.58-2.56,1.42,0,2.55,1.16,2.55,2.59Z"/>
  <path class="cls-1" d="m48.43,84.59c-17.64-.44-32.98-13.03-36.83-30.24-.16-.7-.3-1.41-.41-2.13-.08-.57.16-1.04.64-1.36.47-.31.96-.32,1.46-.06.51.26.67.73.8,1.25.41,1.68.72,3.4,1.29,5.03,3.93,11.19,11.52,18.78,22.7,22.75,3.6,1.27,7.34,1.86,11.16,1.88.24,0,.48.01.72.06.7.15,1.15.78,1.11,1.49-.05.71-.58,1.28-1.29,1.33-.45.03-.9,0-1.35,0Z"/>
  <path class="cls-1" d="m13.53,46.68c0,.37.02.74,0,1.11-.04.73-.59,1.35-1.22,1.41-.74.08-1.48-.39-1.58-1.16-.11-.88-.13-1.79-.08-2.68.04-.7.77-1.22,1.47-1.18.73.04,1.31.6,1.37,1.36.03.38,0,.77,0,1.15h.03Z"/>
</svg>