<?xml version="1.0" encoding="UTF-8"?>
<svg id="Layer_1" data-name="Layer 1"
  xmlns="http://www.w3.org/2000/svg" viewBox="0 0 83.08 81.67">
  <path d="m20.79,41.59c-.06-3.4.51-6.29,1.75-9.03.62-1.36,1.33-2.67,2.27-3.84.72-.89,1.46-1.77,2.28-2.55,2.33-2.21,5.03-3.81,8.11-4.77,2.57-.8,5.19-1.09,7.88-.91,2.54.17,4.96.8,7.26,1.86,1.37.63,2.65,1.4,3.86,2.31.95.72,1.8,1.53,2.63,2.38.79.82,1.45,1.73,2.1,2.66,1.14,1.65,1.92,3.45,2.52,5.35.8,2.52.99,5.1.77,7.72-.08,1-.23,1.98-.5,2.95-.53,1.94-1.24,3.82-2.32,5.53-.64,1.02-1.32,2.03-2.14,2.93-1.38,1.53-2.93,2.86-4.69,3.94-2.59,1.59-5.39,2.57-8.4,2.95-3.33.41-6.58.06-9.74-1.06-1.65-.59-3.2-1.37-4.65-2.35-1.73-1.17-3.24-2.57-4.56-4.2-.94-1.15-1.68-2.42-2.38-3.72-1.32-2.47-2.04-5.82-2.06-8.14Z"/>
  <path d="m18.28,59.85c1.43.11,2.77.79,3.48,2.37.71,1.56.48,3.04-.62,4.36-.3.37-.67.68-1.01,1.01-.73.72-1.44,1.45-2.19,2.15-2.05,1.9-5.18,1.38-6.53-1.05-.56-1.01-.63-2.05-.29-3.12.19-.58.51-1.11.95-1.55,1.04-1.04,2.07-2.1,3.15-3.11.78-.72,1.74-1.06,3.05-1.06Z"/>
  <path d="m45.7,75.56c0,.68.02,1.36,0,2.03-.06,1.48-.69,2.68-1.96,3.45-1.54.93-3.31.84-4.74-.25-1.07-.82-1.57-1.91-1.59-3.24-.02-1.33,0-2.66,0-3.99,0-.92.24-1.77.81-2.49,1.14-1.44,2.94-1.99,4.68-1.41,1.25.41,2.05,1.27,2.54,2.47.2.5.28,1.02.28,1.56,0,.62,0,1.25,0,1.87h0Z"/>
  <path d="m45.7,6.12c0,.68,0,1.36,0,2.04-.02,2.1-1.77,4.15-4.32,4.07-2.02-.07-3.99-1.71-3.98-4.12,0-1.34,0-2.69,0-4.03,0-.93.28-1.79.87-2.51,1.1-1.34,2.89-1.92,4.6-1.34,1.26.42,2.08,1.28,2.56,2.5.19.48.26.97.26,1.48,0,.64,0,1.28,0,1.92h0Z"/>
  <path d="m17.65,21.79c-.77-.01-1.77-.41-2.6-1.22-.99-.97-1.99-1.92-2.95-2.92-1.15-1.2-1.53-2.64-.92-4.19,1.23-3.1,4.81-3.38,6.68-1.63.51.48,1.01.98,1.52,1.47.52.51,1.06,1.01,1.57,1.53,1.64,1.66,1.61,4.27-.09,5.86-.78.73-1.74,1.1-3.21,1.1Z"/>
  <path d="m72.13,14.69c0,1.33-.46,2.32-1.3,3.14-.49.47-.97.94-1.46,1.42-.49.48-.98.97-1.49,1.44-1.69,1.61-4.45,1.42-5.99-.33-1.25-1.43-1.18-3.34-.55-4.46.2-.37.47-.71.77-1.01,1-1.02,2.02-2.04,3.06-3.03,1.28-1.22,3.52-1.54,5.22-.33,1.15.82,1.69,1.94,1.73,3.17Z"/>
  <path d="m67.98,70.88c-1.14-.03-2.13-.4-2.94-1.21-.94-.94-1.89-1.87-2.84-2.8-.61-.6-1.07-1.29-1.22-2.15-.17-.95-.08-1.87.41-2.71,1.56-2.66,4.8-2.7,6.53-1.01.73.71,1.46,1.43,2.19,2.15.22.21.44.42.67.63,1.76,1.59,1.82,4.34.1,5.97-.8.75-1.77,1.16-2.9,1.14Z"/>
  <path d="m76.87,36.79c.82,0,1.65-.03,2.47,0,1.63.07,3.32,1.42,3.64,3.13.17.94.16,1.89-.33,2.75-.69,1.23-1.73,1.99-3.15,2.18-.34.05-.69.06-1.03.06-1.17,0-2.34,0-3.51,0-.76,0-1.48-.15-2.15-.51-.89-.47-1.52-1.2-1.87-2.14-.13-.33-.22-.69-.27-1.04-.21-1.33.63-3.29,2.28-4.05.64-.29,1.31-.43,2.01-.42.64,0,1.28,0,1.91,0,0,0,0,.02,0,.03Z"/>
  <path d="m6.16,36.79c.84,0,1.68,0,2.51,0,.59,0,1.12.21,1.63.49,2.03,1.12,2.74,3.62,1.55,5.6-.68,1.13-1.71,1.8-3.03,1.97-.37.05-.74.05-1.11.06-1.14,0-2.29.01-3.43,0-1.1,0-2.1-.32-2.93-1.06-1.9-1.7-1.76-4.75.28-6.27.61-.45,1.31-.74,2.06-.77.82-.04,1.65,0,2.47,0Z"/>
</svg>