<?xml version="1.0" encoding="UTF-8"?>
<svg id="Layer_1" data-name="Layer 1" xmlns="http://www.w3.org/2000/svg" viewBox="0 0 432.05 489.94">
  <defs>
    <style>
      .cls-1 {
        fill: #fff;
      }
    </style>
  </defs>
  <path class="cls-1" d="m308.12,369.95c0,.13.1.23.22.23.06,0,.12-.02.16-.06,10.18-9.47,20.8-21.63,25.57-34.81,3.53-9.73,5.26-19.39,5.19-28.97-.17-23.97-.23-47.95-.2-71.93.02-20.05-7.91-42.24-24.99-54.06-7.3-5.05-13.68-9.13-19.15-12.26-21.01-11.99-41.97-24.05-62.88-36.2-14.6-8.48-29.26-18.3-44.24-26.96-4.25-2.46-8.52-5.25-12.8-8.36-6.97-5.05-14.32-9.71-20.84-15-17.36-14.06-35.9-27.08-51.14-44.09-2.01-2.25-5.21-6.79-6.17-9.69-2.62-7.99,2.52-17.29,8.46-22.26,8.35-6.99,20.21-6.96,29.68-2.12,2.62,1.34,5.77,3.84,9.46,7.51,13.31,13.25,26.59,26.53,39.86,39.84,10.83,10.85,23.52,19.09,36.73,26.47,23.23,12.96,46.1,24.88,69.51,39.16,3.28,2.01,8.35,4.92,15.21,8.75,6.84,3.81,13.84,8.35,20.19,11.83,16.03,8.8,32.11,17.48,48.26,26.05.89.47,2.01,1.68,2.95,2.13,16.17,7.54,31.45,16.57,45.86,27.08,4.67,3.41,8.08,8.21,8.87,13.97,2.7,19.64-29.74,14.08-40.69,13.61-3.47-.14-6.23-1.34-9.48-2.5-.41-.15-.62,0-.62.44,0,29.73,0,59.45-.03,89.16-.02,24.95-6.76,47.14-20.21,66.55-2.69,3.89-6.56,8.37-11.63,13.44-8.01,8.03-16.04,16.05-24.08,24.06-2.9,2.9-9.21,6.34-12.06,8.22-37.87,24.83-76.85,46.42-116.93,64.79-5,2.29-15.58,6.83-21.4,5.83-2.41-.41-4.98-.51-7.13-1.12-13.52-3.88-17.5-17.4-13.04-29.82,1.95-5.42,9.63-9.46,14.57-11.78,28.94-13.58,58-25.98,84.14-44.71,2.81-2.02,7.97-7.11,15.48-15.28.22-.24.33-.52.33-.84.05-17.45-.06-42.4-.32-74.84-.04-5.22-2.36-7.1-6.95-9.65-19.64-10.91-39.32-21.77-59.03-32.58-1.89-1.04-4.93-.28-7.01.85-25.02,13.56-45.93,25.42-75.4,39.43-4.75,2.26-9.42,3.09-14,2.48-11.04-1.45-11.24-11.33-5.43-18.7,9.47-12.03,19.37-23.6,29.68-34.7.18-.2.17-.51-.02-.69-.07-.07-.17-.11-.27-.13-14.39-1.85-28.23-4.61-41.52-8.29-17.39-4.81-36.36-19.67-46.69-34.36-9.27-13.18-7.22-32.8,9.32-39.16,7.37-2.83,16.41-.14,21.42,5.82,6.22,7.38,13.22,14.27,20.16,20.99,1.07,1.04,2.28,1.91,3.62,2.62,17.48,9.2,34.64,15.83,54.1,18.69,15.37,2.26,30.82,3.72,46.33,4.39,6.69.29,14.04,3.61,20,6.5.34.17.71.26,1.12.27.32,0,.63.08.92.22,13.65,6.71,26.88,13.57,41.12,19.76,18.65,8.1,40.43,17.96,46.54,39.48.87,3.07,1.3,7.49,1.29,13.28-.02,20.71-.01,41.39.03,62.02Z"/>
  <path class="cls-1" d="m80.26,84.43c9.97,10.54,20.27,20.69,30.37,31.09,4.04,4.17,9.36,8.34,13.2,11.16,9.19,6.75,21.89,15,38.09,24.77,12.16,7.32,25.99,12.03,37.69,19.95,3.04,2.07,7.2,6.11,7.78,9.69.71,4.34-2.77,6.32-6.79,6.15-16.01-.65-30.46-3.3-43.33-7.95-16.11-5.81-30.03-10.77-43.15-18.22-19.42-11.02-37.72-20.5-56.27-35.41C32.71,105.44,8.71,80.97.32,47.69c-.7-2.77-.24-6.04,1.38-9.8,7.62-17.75,28.88-17.13,40.18-3.75,11.5,13.61,21.64,28.39,32.18,42.75,2.13,2.9,4.19,5.41,6.2,7.54Z"/>
  <rect class="cls-1" x="244.35" y="178.66" width="45.98" height="54.74" rx="8.07" ry="8.07"/>
  <rect class="cls-1" x="176.1" y="309.66" width="44" height="21.48" rx="3.74" ry="3.74"/>
  <rect class="cls-1" x="179.63" y="333.66" width="36.96" height="43.98" rx="3.62" ry="3.62" transform="translate(-158.23 552.52) rotate(-89.8)"/>
</svg>