<?xml version="1.0" encoding="UTF-8" standalone="no"?>
<!DOCTYPE svg PUBLIC "-//W3C//DTD SVG 1.1//EN" "http://www.w3.org/Graphics/SVG/1.1/DTD/svg11.dtd">
<svg xmlns="http://www.w3.org/2000/svg" version="1.1" viewBox="0.00 0.00 500.00 500.00">
<g stroke-width="2.00" fill="none" stroke-linecap="butt">
<path stroke="#0d468e" vector-effect="non-scaling-stroke" d="
  M 327.18 123.98
  Q 323.21 129.71 317.78 133.80
  Q 305.02 143.41 291.81 152.79"
/>
<path stroke="#0d468e" vector-effect="non-scaling-stroke" d="
  M 163.18 262.70
  C 176.11 254.42 190.27 242.11 206.55 237.04
  Q 213.14 234.99 220.16 233.06"
/>
</g>
<path fill="#1363df" d="
  M 327.18 123.98
  Q 323.21 129.71 317.78 133.80
  Q 305.02 143.41 291.81 152.79
  C 262.32 135.52 236.71 120.59 216.82 107.92
  C 197.30 95.49 178.16 80.28 158.69 64.54
  Q 145.89 54.19 134.85 41.91
  C 130.47 37.03 126.84 31.49 128.47 24.57
  C 133.77 2.09 160.00 -0.48 174.75 14.25
  Q 194.73 34.21 214.79 54.08
  C 225.98 65.17 238.33 74.19 251.27 81.27
  Q 298.85 107.29 327.18 123.98
  Z"
/>
<path fill="#1363df" d="
  M 221.01 170.29
  C 226.31 172.77 241.66 180.71 238.91 188.87
  Q 237.85 192.01 233.74 191.94
  C 193.04 191.32 154.61 171.55 120.35 151.47
  C 84.28 130.33 45.57 97.27 33.20 55.98
  C 31.20 49.30 31.98 44.43 35.71 38.93
  C 44.90 25.37 62.07 26.93 72.68 37.83
  Q 76.87 42.14 87.87 57.11
  C 96.51 68.86 104.84 81.66 114.94 92.16
  Q 127.97 105.70 141.20 119.05
  C 149.47 127.38 157.29 132.74 168.64 140.46
  Q 193.61 157.45 221.01 170.29
  Z"
/>
<path fill="#06283d" d="
  M 327.18 123.98
  Q 365.29 146.43 404.70 167.16
  C 406.46 168.09 408.22 169.57 410.06 170.45
  Q 433.51 181.67 454.66 196.78
  C 460.94 201.27 467.15 212.01 462.07 219.35
  C 456.59 227.26 440.16 225.74 431.58 225.27
  C 424.91 224.91 419.05 224.55 413.89 222.12
  A 0.79 0.78 -77.3 0 0 412.77 222.83
  Q 412.75 264.90 412.76 307.00
  Q 412.76 320.56 412.02 326.97
  C 409.49 348.75 400.42 370.73 385.55 387.08
  C 378.35 395.00 367.51 405.37 358.44 414.27
  C 351.29 421.29 340.80 426.66 332.30 432.05
  Q 284.06 462.63 232.29 486.77
  C 224.04 490.62 214.51 495.44 205.09 494.46
  C 189.30 492.81 180.44 479.30 186.51 463.97
  C 188.97 457.74 196.27 454.03 202.23 451.46
  C 211.08 447.65 223.76 441.32 236.67 435.21
  Q 262.47 423.01 285.97 406.74
  Q 290.19 403.82 300.65 391.70
  Q 300.97 391.34 300.97 390.86
  Q 301.14 353.97 300.83 317.09
  C 300.80 313.35 299.53 309.87 296.42 308.09
  Q 283.19 300.49 238.93 276.33
  C 234.95 274.16 232.10 272.23 227.56 274.79
  Q 181.04 300.99 150.24 315.28
  C 137.86 321.02 121.19 313.02 133.33 297.61
  Q 147.34 279.83 163.18 262.70
  C 176.11 254.42 190.27 242.11 206.55 237.04
  Q 213.14 234.99 220.16 233.06
  Q 232.11 232.15 243.17 237.07
  C 261.60 245.28 281.42 255.09 305.57 266.16
  C 319.88 272.72 334.31 283.78 338.60 299.91
  Q 340.04 305.30 340.01 317.19
  Q 339.94 345.87 340.03 374.52
  Q 340.03 375.24 340.57 374.76
  C 354.97 361.87 365.86 346.43 369.63 327.33
  Q 370.93 320.75 370.97 307.43
  Q 371.09 273.73 371.11 240.00
  C 371.12 219.13 363.04 197.07 345.45 184.81
  C 328.83 173.22 309.72 163.13 291.81 152.79
  Q 305.02 143.41 317.78 133.80
  Q 323.21 129.71 327.18 123.98
  Z"
/>
<path fill="#1363df" d="
  M 220.16 233.06
  Q 213.14 234.99 206.55 237.04
  C 190.27 242.11 176.11 254.42 163.18 262.70
  Q 144.32 260.21 126.48 255.72
  Q 115.98 253.07 108.62 249.33
  C 91.27 240.49 57.23 214.03 72.01 190.25
  C 77.78 180.98 88.99 176.73 99.01 182.11
  Q 102.19 183.82 106.71 188.81
  Q 114.49 197.39 122.74 205.50
  Q 125.85 208.56 129.49 210.56
  C 158.65 226.66 185.84 230.13 220.16 233.06
  Z"
/>
<rect fill="#47b5ff" x="276.25" y="183.51" width="46.00" height="54.74" rx="8.08"/>
<rect fill="#47b5ff" x="208.00" y="314.49" width="44.00" height="21.50" rx="3.90"/>
<rect fill="#47b5ff" x="-22.00" y="-18.50" transform="translate(230.00,360.51) rotate(0.1)" width="44.00" height="37.00" rx="3.75"/>
</svg>
