<?xml version="1.0" encoding="UTF-8" standalone="no"?>
<!DOCTYPE svg PUBLIC "-//W3C//DTD SVG 1.1//EN" "http://www.w3.org/Graphics/SVG/1.1/DTD/svg11.dtd">
<svg xmlns="http://www.w3.org/2000/svg" version="1.1" viewBox="0.00 0.00 500.00 500.00">
<path fill="#000000" d="
  M 340.02 374.79
  A 0.23 0.22 68.6 0 0 340.40 374.96
  C 350.58 365.49 361.20 353.33 365.97 340.15
  Q 371.26 325.55 371.16 311.18
  Q 370.91 275.22 370.96 239.25
  C 370.98 219.20 363.05 197.01 345.97 185.19
  Q 335.02 177.62 326.82 172.93
  Q 295.31 154.95 263.94 136.73
  C 249.34 128.25 234.68 118.43 219.70 109.77
  Q 213.32 106.08 206.90 101.41
  C 199.93 96.36 192.58 91.70 186.06 86.41
  C 168.70 72.35 150.16 59.33 134.92 42.32
  C 132.91 40.07 129.71 35.53 128.75 32.63
  C 126.13 24.64 131.27 15.34 137.21 10.37
  C 145.56 3.38 157.42 3.41 166.89 8.25
  Q 170.82 10.26 176.35 15.76
  Q 196.31 35.64 216.21 55.60
  C 227.04 66.45 239.73 74.69 252.94 82.07
  C 276.17 95.03 299.04 106.95 322.45 121.23
  Q 327.37 124.24 337.66 129.98
  C 344.50 133.79 351.50 138.33 357.85 141.81
  Q 381.89 155.01 406.11 167.86
  C 407.00 168.33 408.12 169.54 409.06 169.99
  Q 433.31 181.30 454.92 197.07
  C 459.59 200.48 463.00 205.28 463.79 211.04
  C 466.49 230.68 434.05 225.12 423.10 224.65
  C 419.63 224.51 416.87 223.31 413.62 222.15
  Q 413.00 221.93 413.00 222.59
  Q 413.01 267.19 412.97 311.75
  Q 412.94 349.18 392.76 378.30
  Q 388.73 384.13 381.13 391.74
  Q 369.11 403.78 357.05 415.80
  C 354.15 418.70 347.84 422.14 344.99 424.02
  Q 288.18 461.26 228.06 488.81
  C 223.06 491.10 212.48 495.64 206.66 494.64
  C 204.25 494.23 201.68 494.13 199.53 493.52
  C 186.01 489.64 182.03 476.12 186.49 463.70
  C 188.44 458.28 196.12 454.24 201.06 451.92
  C 230.00 438.34 259.06 425.94 285.20 407.21
  Q 289.42 404.18 300.68 391.93
  Q 301.01 391.57 301.01 391.09
  Q 301.08 364.91 300.69 316.25
  C 300.65 311.03 298.33 309.15 293.74 306.60
  Q 264.28 290.23 234.71 274.02
  C 232.82 272.98 229.78 273.74 227.70 274.87
  C 202.68 288.43 181.77 300.29 152.30 314.30
  Q 145.17 317.69 138.30 316.78
  C 127.26 315.33 127.06 305.45 132.87 298.08
  Q 147.08 280.03 162.55 263.38
  A 0.49 0.49 0.0 0 0 162.26 262.56
  Q 140.67 259.79 120.74 254.27
  C 103.35 249.46 84.38 234.60 74.05 219.91
  C 64.78 206.73 66.83 187.11 83.37 180.75
  C 90.74 177.92 99.78 180.61 104.79 186.57
  C 111.01 193.95 118.01 200.84 124.95 207.56
  Q 126.56 209.12 128.57 210.18
  C 146.05 219.38 163.21 226.01 182.67 228.87
  Q 205.73 232.26 229.00 233.26
  C 235.69 233.55 243.04 236.87 249.00 239.76
  Q 249.51 240.01 250.12 240.03
  Q 250.60 240.04 251.04 240.25
  C 264.69 246.96 277.92 253.82 292.16 260.01
  C 310.81 268.11 332.59 277.97 338.70 299.49
  Q 340.00 304.09 339.99 312.77
  Q 339.96 343.84 340.02 374.79
  Z"
/>
<path fill="#000000" d="
  M 112.16 89.27
  C 122.13 99.81 132.43 109.96 142.53 120.36
  C 146.57 124.53 151.89 128.70 155.73 131.52
  Q 169.52 141.64 193.82 156.29
  C 205.98 163.61 219.81 168.32 231.51 176.24
  C 234.55 178.31 238.71 182.35 239.29 185.93
  C 240.00 190.27 236.52 192.25 232.50 192.08
  Q 208.48 191.10 189.17 184.13
  C 173.06 178.32 159.14 173.36 146.02 165.91
  C 126.60 154.89 108.30 145.41 89.75 130.50
  C 64.61 110.28 40.61 85.81 32.22 52.53
  Q 31.17 48.37 33.60 42.73
  C 41.22 24.98 62.48 25.60 73.78 38.98
  C 85.28 52.59 95.42 67.37 105.96 81.73
  Q 109.15 86.08 112.16 89.27
  Z"
/>
<rect fill="#000000" x="276.25" y="183.50" width="45.98" height="54.74" rx="8.07"/>
<rect fill="#000000" x="208.00" y="314.50" width="44.00" height="21.48" rx="3.74"/>
<rect fill="#000000" x="-21.99" y="-18.48" transform="translate(230.01,360.49) rotate(0.2)" width="43.98" height="36.96" rx="3.62"/>
</svg>
